<svg width="24" height="24" viewBox="0 0 24 24" fill="none" xmlns="http://www.w3.org/2000/svg">
<path fill-rule="evenodd" clip-rule="evenodd" d="M7.99644 4H16.0044C18.2107 4 20 5.78844 20 7.99644V16.0044C20 18.2107 18.2116 20 16.0036 20H7.99644C5.78933 20 4 18.2116 4 16.0036V7.99644C4 5.78933 5.78844 4 7.99644 4V4Z" stroke="black" stroke-width="1.5" stroke-linecap="round" stroke-linejoin="round"/>
<path d="M16.4995 7.1625C16.3135 7.1635 16.1625 7.3145 16.1625 7.5005C16.1625 7.6865 16.3145 7.8375 16.5005 7.8375C16.6865 7.8375 16.8375 7.6865 16.8375 7.5005C16.8385 7.3135 16.6865 7.1625 16.4995 7.1625" stroke="black" stroke-width="1.5" stroke-linecap="round" stroke-linejoin="round"/>
<path d="M14.1213 9.87868C15.2929 11.0503 15.2929 12.9497 14.1213 14.1213C12.9497 15.2929 11.0503 15.2929 9.87868 14.1213C8.70711 12.9497 8.70711 11.0503 9.87868 9.87868C11.0503 8.70711 12.9497 8.70711 14.1213 9.87868" stroke="black" stroke-width="1.5" stroke-linecap="round" stroke-linejoin="round"/>
</svg>
